<?xml version="1.0" encoding="UTF-8" standalone="no"?>
<svg
   xmlns:dc="http://purl.org/dc/elements/1.1/"
   xmlns:cc="http://creativecommons.org/ns#"
   xmlns:rdf="http://www.w3.org/1999/02/22-rdf-syntax-ns#"
   xmlns:svg="http://www.w3.org/2000/svg"
   xmlns="http://www.w3.org/2000/svg"
   xmlns:sodipodi="http://sodipodi.sourceforge.net/DTD/sodipodi-0.dtd"
   xmlns:inkscape="http://www.inkscape.org/namespaces/inkscape"
   width="100%"
   height="100%"
   viewBox="0 0 256 256"
   version="1.1"
   xml:space="preserve"
   style="fill-rule:evenodd;clip-rule:evenodd;stroke-linejoin:round;stroke-miterlimit:2;"
   id="svg32"
   sodipodi:docname="icon.svg"
   inkscape:version="0.92.4 (5da689c313, 2019-01-14)"><metadata
   id="metadata38"><rdf:RDF><cc:Work
       rdf:about=""><dc:format>image/svg+xml</dc:format><dc:type
         rdf:resource="http://purl.org/dc/dcmitype/StillImage" /></cc:Work></rdf:RDF></metadata><defs
   id="defs36" /><sodipodi:namedview
   pagecolor="#ffffff"
   bordercolor="#666666"
   borderopacity="1"
   objecttolerance="10"
   gridtolerance="10"
   guidetolerance="10"
   inkscape:pageopacity="0"
   inkscape:pageshadow="2"
   inkscape:window-width="1920"
   inkscape:window-height="974"
   id="namedview34"
   showgrid="false"
   inkscape:zoom="0.921875"
   inkscape:cx="-29.637193"
   inkscape:cy="242.7322"
   inkscape:window-x="-9"
   inkscape:window-y="-9"
   inkscape:window-maximized="1"
   inkscape:current-layer="svg32" />
    <g
   transform="matrix(0.413372,0,0,0.469741,64.564,40.5821)"
   id="g4">
        <rect
   x="-156.189"
   y="-86.393"
   width="619.297"
   height="544.981"
   style="fill:rgb(27,30,31);"
   id="rect2" />
    </g>
    <g
   transform="matrix(1.233362,0,0,1.233362,-227.20209,-213.80831)"
   id="g30"
   style="stroke-width:0.72837979">
        <g
   transform="rotate(59.999988,288.00024,166.27682)"
   id="g8"
   style="stroke-width:0.72837979">
            <path
   d="m 390.877,136.653 c -1.42,-2.46 -4.046,-3.976 -6.887,-3.976 -2.841,0 -5.466,1.516 -6.887,3.976 -4.01,6.946 -8.957,15.515 -12.499,21.65 -2.855,4.945 -2.855,11.037 0,15.982 3.538,6.129 8.48,14.687 12.488,21.63 1.423,2.464 4.052,3.983 6.898,3.983 2.846,0 5.476,-1.519 6.899,-3.983 4.008,-6.943 8.949,-15.501 12.488,-21.631 2.855,-4.944 2.855,-11.036 0,-15.981 -3.542,-6.135 -8.489,-14.704 -12.5,-21.65 z"
   style="fill:#ffffff;stroke-width:0.72837979"
   id="path6"
   inkscape:connector-curvature="0" />
        </g>
        <g
   transform="translate(-96,166.277)"
   id="g12"
   style="stroke-width:0.72837979">
            <path
   d="m 390.877,136.653 c -1.42,-2.46 -4.046,-3.976 -6.887,-3.976 -2.841,0 -5.466,1.516 -6.887,3.976 -4.01,6.946 -8.957,15.515 -12.499,21.65 -2.855,4.945 -2.855,11.037 0,15.982 3.538,6.129 8.48,14.687 12.488,21.63 1.423,2.464 4.052,3.983 6.898,3.983 2.846,0 5.476,-1.519 6.899,-3.983 4.008,-6.943 8.949,-15.501 12.488,-21.631 2.855,-4.944 2.855,-11.036 0,-15.981 -3.542,-6.135 -8.489,-14.704 -12.5,-21.65 z"
   style="fill:#ffffff;stroke-width:0.72837979"
   id="path10"
   inkscape:connector-curvature="0" />
        </g>
        <g
   transform="rotate(-59.999988,384.00039,332.55413)"
   id="g16"
   style="stroke-width:0.72837979">
            <path
   d="m 390.877,136.653 c -1.42,-2.46 -4.046,-3.976 -6.887,-3.976 -2.841,0 -5.466,1.516 -6.887,3.976 -4.01,6.946 -8.957,15.515 -12.499,21.65 -2.855,4.945 -2.855,11.037 0,15.982 3.538,6.129 8.48,14.687 12.488,21.63 1.423,2.464 4.052,3.983 6.898,3.983 2.846,0 5.476,-1.519 6.899,-3.983 4.008,-6.943 8.949,-15.501 12.488,-21.631 2.855,-4.944 2.855,-11.036 0,-15.981 -3.542,-6.135 -8.489,-14.704 -12.5,-21.65 z"
   style="fill:#ffffff;stroke-width:0.72837979"
   id="path14"
   inkscape:connector-curvature="0" />
        </g>
        <g
   transform="translate(-95.9902,55.4086)"
   id="g20"
   style="stroke-width:0.72837979">
            <path
   d="m 390.877,136.653 c -1.42,-2.46 -4.046,-3.976 -6.887,-3.976 -2.841,0 -5.466,1.516 -6.887,3.976 -4.01,6.946 -8.957,15.515 -12.499,21.65 -2.855,4.945 -2.855,11.037 0,15.982 3.538,6.129 8.48,14.687 12.488,21.63 1.423,2.464 4.052,3.983 6.898,3.983 2.846,0 5.476,-1.519 6.899,-3.983 4.008,-6.943 8.949,-15.501 12.488,-21.631 2.855,-4.944 2.855,-11.036 0,-15.981 -3.542,-6.135 -8.489,-14.704 -12.5,-21.65 z m -5.196,3 c -0.349,-0.604 -0.993,-0.976 -1.691,-0.976 -0.697,0 -1.342,0.372 -1.691,0.976 -4.01,6.946 -8.957,15.515 -12.499,21.65 -1.783,3.088 -1.783,6.893 0,9.982 3.539,6.129 8.48,14.687 12.488,21.63 0.351,0.608 1,0.983 1.702,0.983 0.702,0 1.351,-0.375 1.702,-0.983 4.009,-6.943 8.95,-15.501 12.489,-21.631 1.783,-3.088 1.783,-6.893 0,-9.981 z"
   style="fill:#96d04a;stroke-width:0.72837979"
   id="path18"
   inkscape:connector-curvature="0" />
        </g>
        <g
   transform="rotate(-59.999988,479.99989,277.12819)"
   id="g24"
   style="stroke-width:0.72837979">
            <path
   d="m 390.877,136.653 c -1.42,-2.46 -4.046,-3.976 -6.887,-3.976 -2.841,0 -5.466,1.516 -6.887,3.976 -4.01,6.946 -8.957,15.515 -12.499,21.65 -2.855,4.945 -2.855,11.037 0,15.982 3.538,6.129 8.48,14.687 12.488,21.63 1.423,2.464 4.052,3.983 6.898,3.983 2.846,0 5.476,-1.519 6.899,-3.983 4.008,-6.943 8.949,-15.501 12.488,-21.631 2.855,-4.944 2.855,-11.036 0,-15.981 -3.542,-6.135 -8.489,-14.704 -12.5,-21.65 z m -5.196,3 c -0.349,-0.604 -0.993,-0.976 -1.691,-0.976 -0.697,0 -1.342,0.372 -1.691,0.976 -4.01,6.946 -8.957,15.515 -12.499,21.65 -1.783,3.088 -1.783,6.893 0,9.982 3.539,6.129 8.48,14.687 12.488,21.63 0.351,0.608 1,0.983 1.702,0.983 0.702,0 1.351,-0.375 1.702,-0.983 4.009,-6.943 8.95,-15.501 12.489,-21.631 1.783,-3.088 1.783,-6.893 0,-9.981 z"
   style="fill:#96d04a;stroke-width:0.72837979"
   id="path22"
   inkscape:connector-curvature="0" />
        </g>
        <g
   transform="rotate(59.999988,191.99987,110.85138)"
   id="g28"
   style="stroke-width:0.72837979">
            <path
   d="m 390.877,136.653 c -1.42,-2.46 -4.046,-3.976 -6.887,-3.976 -2.841,0 -5.466,1.516 -6.887,3.976 -4.01,6.946 -8.957,15.515 -12.499,21.65 -2.855,4.945 -2.855,11.037 0,15.982 3.538,6.129 8.48,14.687 12.488,21.63 1.423,2.464 4.052,3.983 6.898,3.983 2.846,0 5.476,-1.519 6.899,-3.983 4.008,-6.943 8.949,-15.501 12.488,-21.631 2.855,-4.944 2.855,-11.036 0,-15.981 -3.542,-6.135 -8.489,-14.704 -12.5,-21.65 z m -5.196,3 c -0.349,-0.604 -0.993,-0.976 -1.691,-0.976 -0.697,0 -1.342,0.372 -1.691,0.976 -4.01,6.946 -8.957,15.515 -12.499,21.65 -1.783,3.088 -1.783,6.893 0,9.982 3.539,6.129 8.48,14.687 12.488,21.63 0.351,0.608 1,0.983 1.702,0.983 0.702,0 1.351,-0.375 1.702,-0.983 4.009,-6.943 8.95,-15.501 12.489,-21.631 1.783,-3.088 1.783,-6.893 0,-9.981 z"
   style="fill:#96d04a;stroke-width:0.72837979"
   id="path26"
   inkscape:connector-curvature="0" />
        </g>
    </g>
<path
   style="opacity:1;fill:#f66e4f;fill-opacity:1;fill-rule:nonzero;stroke:none;stroke-width:14.00000381;stroke-linecap:round;stroke-linejoin:round;stroke-miterlimit:4;stroke-dasharray:none;stroke-dashoffset:0;stroke-opacity:1;paint-order:fill markers stroke"
   d="m 173.11108,168.87209 c -0.0182,0.001 -0.0324,0.005 -0.0431,0.0116 -0.4071,0.23504 -0.6895,7.4146 -0.84888,17.29438 h -7.12545 v 42.77305 h 7.12705 c 0.16012,9.87982 0.44298,17.05966 0.85011,17.29467 1.33996,0.77358 66.99632,-37.13627 66.99625,-38.68351 -4e-5,-1.53516 -64.63722,-38.86221 -66.95595,-38.68967 z"
   id="rect4566"
   inkscape:connector-curvature="0" /></svg>