<svg xmlns="http://www.w3.org/2000/svg" width="600" height="600" viewBox="0 0 158.75 158.75"><path clip-rule="evenodd" fill="#1b1e1f" fill-rule="evenodd" d="M0 0h158.75v158.75H0z"/><g stroke-width=".566" clip-rule="evenodd"><g fill-rule="evenodd" stroke-width=".412" stroke-linejoin="round" stroke-miterlimit="2"><path d="M123.85 58.275a4.588 4.588 0 00-3.972-6.88h-14.421a9.22 9.22 0 00-7.985 4.61l-7.204 12.477a4.595 4.595 0 003.98 6.892h14.408a9.218 9.218 0 007.984-4.61l7.21-12.489zM83.345 94.255a4.588 4.588 0 00-7.946 0l-7.21 12.49a9.22 9.22 0 000 9.219l7.204 12.477a4.595 4.595 0 007.959 0l7.204-12.478a9.218 9.218 0 000-9.219l-7.21-12.489zM38.873 51.405a4.588 4.588 0 00-3.973 6.88l7.21 12.49a9.22 9.22 0 007.985 4.61h14.408a4.595 4.595 0 003.979-6.893l-7.204-12.478a9.218 9.218 0 00-7.984-4.61H38.873z" fill="#fff"/><path d="M83.35 30.3a4.588 4.588 0 00-7.945 0l-7.21 12.488a9.22 9.22 0 000 9.22l7.204 12.477a4.595 4.595 0 007.959 0l7.203-12.478a9.218 9.218 0 000-9.219L83.351 30.3zm-2.997 1.73a1.126 1.126 0 00-1.95 0l-7.21 12.489a5.759 5.759 0 000 5.758c2.04 3.536 4.891 8.472 7.203 12.478a1.134 1.134 0 001.964 0l7.204-12.478a5.757 5.757 0 000-5.758zM94.251 83.377a4.588 4.588 0 00-3.972 6.881l7.21 12.49a9.22 9.22 0 007.985 4.609h14.407a4.595 4.595 0 003.98-6.893l-7.205-12.477a9.218 9.218 0 00-7.983-4.61H94.25zm0 3.461a1.126 1.126 0 00-.975 1.69l7.21 12.489a5.759 5.759 0 004.988 2.879h14.407a1.134 1.134 0 00.982-1.7l-7.204-12.479a5.757 5.757 0 00-4.986-2.879zM68.472 90.249a4.588 4.588 0 00-3.973-6.882H50.078a9.22 9.22 0 00-7.984 4.61l-7.204 12.478a4.595 4.595 0 003.98 6.893h14.407a9.218 9.218 0 007.984-4.61l7.21-12.49zm-2.998-1.73a1.126 1.126 0 00-.975-1.69H50.078a5.759 5.759 0 00-4.987 2.879c-2.041 3.536-4.891 8.473-7.204 12.477a1.134 1.134 0 00.982 1.701h14.408a5.757 5.757 0 004.987-2.879z" fill="#96d04a"/></g><path d="M100.474 98.492c-.009 0-.016.001-.02.005-.19.11-.322 3.468-.397 8.089h-3.333v20.005h3.334c.075 4.621.207 7.98.397 8.09.627.361 31.336-17.37 31.336-18.093 0-.718-30.232-18.177-31.317-18.096z" fill="#f66e4f" paint-order="fill markers stroke"/></g></svg>