<?xml version="1.0" encoding="UTF-8" standalone="no"?>
<svg
   xmlns:dc="http://purl.org/dc/elements/1.1/"
   xmlns:cc="http://creativecommons.org/ns#"
   xmlns:rdf="http://www.w3.org/1999/02/22-rdf-syntax-ns#"
   xmlns:svg="http://www.w3.org/2000/svg"
   xmlns="http://www.w3.org/2000/svg"
   xmlns:sodipodi="http://sodipodi.sourceforge.net/DTD/sodipodi-0.dtd"
   xmlns:inkscape="http://www.inkscape.org/namespaces/inkscape"
   width="600"
   height="600"
   viewBox="0 0 158.75 158.75"
   version="1.1"
   id="svg10"
   sodipodi:docname="icon-maskable.svg"
   inkscape:version="0.92.4 (5da689c313, 2019-01-14)"
   inkscape:export-filename="C:\Users\tamai\OneDrive\デスクトップ\icon.png"
   inkscape:export-xdpi="192"
   inkscape:export-ydpi="192">
  <metadata
     id="metadata16">
    <rdf:RDF>
      <cc:Work
         rdf:about="">
        <dc:format>image/svg+xml</dc:format>
        <dc:type
           rdf:resource="http://purl.org/dc/dcmitype/StillImage" />
        <dc:title></dc:title>
      </cc:Work>
    </rdf:RDF>
  </metadata>
  <defs
     id="defs14" />
  <sodipodi:namedview
     pagecolor="#ffffff"
     bordercolor="#666666"
     borderopacity="1"
     objecttolerance="10"
     gridtolerance="10"
     guidetolerance="10"
     inkscape:pageopacity="0"
     inkscape:pageshadow="2"
     inkscape:window-width="1920"
     inkscape:window-height="974"
     id="namedview12"
     showgrid="false"
     inkscape:snap-page="true"
     inkscape:zoom="1.1125147"
     inkscape:cx="192.27753"
     inkscape:cy="308.88616"
     inkscape:window-x="-9"
     inkscape:window-y="-9"
     inkscape:window-maximized="1"
     inkscape:current-layer="svg10" />
  <g
     style="clip-rule:evenodd;fill-rule:evenodd;stroke-width:0.42666653;stroke-linejoin:round;stroke-miterlimit:2"
     transform="matrix(0.25633915,0,0,0.29129455,40.037355,25.16581)"
     id="g4" />
  <rect
     x="8.0064208e-05"
     y="7.7420002e-05"
     width="158.74991"
     height="158.74985"
     style="clip-rule:evenodd;fill:#1b1e1f;fill-opacity:1;fill-rule:evenodd;stroke-width:0.11659025;stroke-linejoin:round;stroke-miterlimit:2"
     id="rect2" />
  <g
     id="g867"
     transform="matrix(1.7677444,0,0,1.7677444,-303.20087,-64.199758)"
     style="stroke-width:0.5656926">
    <g
       style="clip-rule:evenodd;fill-rule:evenodd;stroke-width:0.41203907;stroke-linejoin:round;stroke-miterlimit:2"
       id="g30"
       transform="matrix(0.32632703,0,0,0.32632703,122.43985,-9.2175248)">
      <g
         style="stroke-width:0.41203907"
         id="g8"
         transform="rotate(59.999988,288.00024,166.27682)">
        <path
           inkscape:connector-curvature="0"
           id="path6"
           style="fill:#ffffff;stroke-width:0.41203907"
           d="m 390.877,136.653 c -1.42,-2.46 -4.046,-3.976 -6.887,-3.976 -2.841,0 -5.466,1.516 -6.887,3.976 -4.01,6.946 -8.957,15.515 -12.499,21.65 -2.855,4.945 -2.855,11.037 0,15.982 3.538,6.129 8.48,14.687 12.488,21.63 1.423,2.464 4.052,3.983 6.898,3.983 2.846,0 5.476,-1.519 6.899,-3.983 4.008,-6.943 8.949,-15.501 12.488,-21.631 2.855,-4.944 2.855,-11.036 0,-15.981 -3.542,-6.135 -8.489,-14.704 -12.5,-21.65 z" />
      </g>
      <g
         style="stroke-width:0.41203907"
         id="g12"
         transform="translate(-96,166.277)">
        <path
           inkscape:connector-curvature="0"
           id="path10"
           style="fill:#ffffff;stroke-width:0.41203907"
           d="m 390.877,136.653 c -1.42,-2.46 -4.046,-3.976 -6.887,-3.976 -2.841,0 -5.466,1.516 -6.887,3.976 -4.01,6.946 -8.957,15.515 -12.499,21.65 -2.855,4.945 -2.855,11.037 0,15.982 3.538,6.129 8.48,14.687 12.488,21.63 1.423,2.464 4.052,3.983 6.898,3.983 2.846,0 5.476,-1.519 6.899,-3.983 4.008,-6.943 8.949,-15.501 12.488,-21.631 2.855,-4.944 2.855,-11.036 0,-15.981 -3.542,-6.135 -8.489,-14.704 -12.5,-21.65 z" />
      </g>
      <g
         style="stroke-width:0.41203907"
         id="g16"
         transform="rotate(-59.999988,384.00039,332.55413)">
        <path
           inkscape:connector-curvature="0"
           id="path14"
           style="fill:#ffffff;stroke-width:0.41203907"
           d="m 390.877,136.653 c -1.42,-2.46 -4.046,-3.976 -6.887,-3.976 -2.841,0 -5.466,1.516 -6.887,3.976 -4.01,6.946 -8.957,15.515 -12.499,21.65 -2.855,4.945 -2.855,11.037 0,15.982 3.538,6.129 8.48,14.687 12.488,21.63 1.423,2.464 4.052,3.983 6.898,3.983 2.846,0 5.476,-1.519 6.899,-3.983 4.008,-6.943 8.949,-15.501 12.488,-21.631 2.855,-4.944 2.855,-11.036 0,-15.981 -3.542,-6.135 -8.489,-14.704 -12.5,-21.65 z" />
      </g>
      <g
         style="stroke-width:0.41203907"
         id="g20"
         transform="translate(-95.9902,55.4086)">
        <path
           inkscape:connector-curvature="0"
           id="path18"
           style="fill:#96d04a;stroke-width:0.41203907"
           d="m 390.877,136.653 c -1.42,-2.46 -4.046,-3.976 -6.887,-3.976 -2.841,0 -5.466,1.516 -6.887,3.976 -4.01,6.946 -8.957,15.515 -12.499,21.65 -2.855,4.945 -2.855,11.037 0,15.982 3.538,6.129 8.48,14.687 12.488,21.63 1.423,2.464 4.052,3.983 6.898,3.983 2.846,0 5.476,-1.519 6.899,-3.983 4.008,-6.943 8.949,-15.501 12.488,-21.631 2.855,-4.944 2.855,-11.036 0,-15.981 -3.542,-6.135 -8.489,-14.704 -12.5,-21.65 z m -5.196,3 c -0.349,-0.604 -0.993,-0.976 -1.691,-0.976 -0.697,0 -1.342,0.372 -1.691,0.976 -4.01,6.946 -8.957,15.515 -12.499,21.65 -1.783,3.088 -1.783,6.893 0,9.982 3.539,6.129 8.48,14.687 12.488,21.63 0.351,0.608 1,0.983 1.702,0.983 0.702,0 1.351,-0.375 1.702,-0.983 4.009,-6.943 8.95,-15.501 12.489,-21.631 1.783,-3.088 1.783,-6.893 0,-9.981 z" />
      </g>
      <g
         style="stroke-width:0.41203907"
         id="g24"
         transform="rotate(-59.999988,479.99989,277.12819)">
        <path
           inkscape:connector-curvature="0"
           id="path22"
           style="fill:#96d04a;stroke-width:0.41203907"
           d="m 390.877,136.653 c -1.42,-2.46 -4.046,-3.976 -6.887,-3.976 -2.841,0 -5.466,1.516 -6.887,3.976 -4.01,6.946 -8.957,15.515 -12.499,21.65 -2.855,4.945 -2.855,11.037 0,15.982 3.538,6.129 8.48,14.687 12.488,21.63 1.423,2.464 4.052,3.983 6.898,3.983 2.846,0 5.476,-1.519 6.899,-3.983 4.008,-6.943 8.949,-15.501 12.488,-21.631 2.855,-4.944 2.855,-11.036 0,-15.981 -3.542,-6.135 -8.489,-14.704 -12.5,-21.65 z m -5.196,3 c -0.349,-0.604 -0.993,-0.976 -1.691,-0.976 -0.697,0 -1.342,0.372 -1.691,0.976 -4.01,6.946 -8.957,15.515 -12.499,21.65 -1.783,3.088 -1.783,6.893 0,9.982 3.539,6.129 8.48,14.687 12.488,21.63 0.351,0.608 1,0.983 1.702,0.983 0.702,0 1.351,-0.375 1.702,-0.983 4.009,-6.943 8.95,-15.501 12.489,-21.631 1.783,-3.088 1.783,-6.893 0,-9.981 z" />
      </g>
      <g
         style="stroke-width:0.41203907"
         id="g28"
         transform="rotate(59.999988,191.99987,110.85138)">
        <path
           inkscape:connector-curvature="0"
           id="path26"
           style="fill:#96d04a;stroke-width:0.41203907"
           d="m 390.877,136.653 c -1.42,-2.46 -4.046,-3.976 -6.887,-3.976 -2.841,0 -5.466,1.516 -6.887,3.976 -4.01,6.946 -8.957,15.515 -12.499,21.65 -2.855,4.945 -2.855,11.037 0,15.982 3.538,6.129 8.48,14.687 12.488,21.63 1.423,2.464 4.052,3.983 6.898,3.983 2.846,0 5.476,-1.519 6.899,-3.983 4.008,-6.943 8.949,-15.501 12.488,-21.631 2.855,-4.944 2.855,-11.036 0,-15.981 -3.542,-6.135 -8.489,-14.704 -12.5,-21.65 z m -5.196,3 c -0.349,-0.604 -0.993,-0.976 -1.691,-0.976 -0.697,0 -1.342,0.372 -1.691,0.976 -4.01,6.946 -8.957,15.515 -12.499,21.65 -1.783,3.088 -1.783,6.893 0,9.982 3.539,6.129 8.48,14.687 12.488,21.63 0.351,0.608 1,0.983 1.702,0.983 0.702,0 1.351,-0.375 1.702,-0.983 4.009,-6.943 8.95,-15.501 12.489,-21.631 1.783,-3.088 1.783,-6.893 0,-9.981 z" />
      </g>
    </g>
    <path
       inkscape:connector-curvature="0"
       id="rect4566"
       d="m 228.35605,92.033335 c -0.005,2.6e-4 -0.009,0.001 -0.0114,0.003 -0.10772,0.0622 -0.18243,1.96178 -0.2246,4.5758 h -1.88528 v 11.317045 h 1.8857 c 0.0424,2.61403 0.11721,4.5137 0.22493,4.57588 0.35453,0.20467 17.72611,-9.82564 17.72609,-10.23501 -1e-5,-0.40618 -17.10193,-10.282305 -17.71543,-10.236655 z"
       style="clip-rule:evenodd;opacity:1;fill:#f66e4f;fill-opacity:1;fill-rule:nonzero;stroke:none;stroke-width:2.09542036;stroke-linecap:round;stroke-linejoin:round;stroke-miterlimit:4;stroke-dasharray:none;stroke-dashoffset:0;stroke-opacity:1;paint-order:fill markers stroke" />
  </g>
</svg>
