<svg xmlns="http://www.w3.org/2000/svg" viewBox="0 0 256 256" fill-rule="evenodd" clip-rule="evenodd" stroke-linejoin="round" stroke-miterlimit="2"><path fill="#1b1e1f" d="M0 0h256v256H0z"/><g stroke-width=".728"><path d="M223.09 82.888a9.809 9.809 0 00-8.494-14.713l-30.832.001a19.711 19.711 0 00-17.071 9.856c-4.365 7.559-10.458 18.115-15.403 26.677a9.825 9.825 0 008.509 14.737h30.805a19.709 19.709 0 0017.07-9.856l15.417-26.702zM136.488 159.814a9.809 9.809 0 00-16.988 0l-15.416 26.702a19.711 19.711 0 000 19.712c4.364 7.56 10.459 18.114 15.402 26.678a9.825 9.825 0 0017.017 0l15.402-26.68a19.709 19.709 0 000-19.71l-15.417-26.702zM41.404 68.198a9.809 9.809 0 00-8.495 14.712l15.417 26.702a19.711 19.711 0 0017.071 9.855h30.805a9.825 9.825 0 008.508-14.736L89.307 78.053a19.709 19.709 0 00-17.07-9.856H41.404z" fill="#fff"/><path d="M136.5 23.073a9.809 9.809 0 00-16.988 0l-15.416 26.702a19.711 19.711 0 000 19.712c4.364 7.56 10.459 18.114 15.402 26.678a9.825 9.825 0 0017.017 0l15.402-26.68a19.709 19.709 0 000-19.71L136.5 23.073zm-6.408 3.7a2.408 2.408 0 00-4.172 0l-15.415 26.703a12.312 12.312 0 000 12.311l15.402 26.678a2.425 2.425 0 004.198 0l15.404-26.68a12.31 12.31 0 000-12.31zM159.806 136.557a9.809 9.809 0 00-8.494 14.712l15.417 26.702a19.711 19.711 0 0017.07 9.856h30.806a9.825 9.825 0 008.508-14.737l-15.404-26.678a19.709 19.709 0 00-17.07-9.856h-30.833zm0 7.4a2.408 2.408 0 00-2.085 3.612l15.417 26.702a12.312 12.312 0 0010.662 6.156h30.804a2.425 2.425 0 002.1-3.636L201.3 150.11a12.31 12.31 0 00-10.661-6.155zM104.688 151.248a9.809 9.809 0 00-8.494-14.712H65.36a19.711 19.711 0 00-17.07 9.856c-4.366 7.559-10.459 18.115-15.403 26.678a9.825 9.825 0 008.508 14.737l30.806-.001a19.709 19.709 0 0017.07-9.855l15.416-26.703zm-6.409-3.7a2.408 2.408 0 00-2.086-3.612H65.361a12.312 12.312 0 00-10.662 6.156L39.296 176.77a2.425 2.425 0 002.1 3.636h30.806a12.31 12.31 0 0010.66-6.155z" fill="#96d04a"/></g><path d="M173.111 168.872a.09.09 0 00-.043.012c-.407.235-.69 7.414-.849 17.294h-7.125v42.773h7.127c.16 9.88.443 17.06.85 17.295 1.34.773 66.996-37.136 66.996-38.684 0-1.535-64.637-38.862-66.956-38.69z" fill="#f66e4f" fill-rule="nonzero" paint-order="fill markers stroke"/></svg>