<svg xmlns="http://www.w3.org/2000/svg" width="600" height="60" viewBox="0 0 158.75 15.875"><path fill="#1b1e1f" paint-order="fill markers stroke" d="M0 0h158.75v15.875H0z"/><text y="292.568" x="38.168" style="line-height:1.25;-inkscape-font-specification:'OTADESIGN Rounded Bold';text-align:start" font-weight="700" font-size="15.323" font-family="OTADESIGN Rounded" letter-spacing="0" word-spacing="0" fill="#fff" stroke-width=".265" transform="translate(-1.694 -281.25)"><tspan style="-inkscape-font-specification:'OTADESIGN Rounded Bold';text-align:start" y="292.568" x="38.168">join.misskey.page</tspan></text><g clip-rule="evenodd" fill-rule="evenodd" stroke-width="4.083" stroke-linejoin="round" stroke-miterlimit="2"><g stroke-width="2.974"><path d="M24.021 4.955a.636.636 0 00-.55-.953h-1.998c-.457 0-.878.244-1.106.639l-.998 1.728a.637.637 0 00.55.955h1.997c.456 0 .878-.243 1.106-.638l.999-1.73zM18.41 9.94a.636.636 0 00-1.101 0l-1 1.73a1.277 1.277 0 000 1.278l.999 1.728a.637.637 0 001.102 0l.998-1.729a1.277 1.277 0 000-1.277l-.999-1.73zM12.248 4.004a.636.636 0 00-.55.953l.999 1.73c.228.395.65.639 1.106.639h1.996a.637.637 0 00.551-.955l-.998-1.729a1.277 1.277 0 00-1.106-.638h-1.998z" fill="#fff"/><path d="M18.41 1.08a.636.636 0 00-1.1 0l-1 1.73a1.277 1.277 0 000 1.277l.998 1.729a.637.637 0 001.103 0l.998-1.729a1.277 1.277 0 000-1.277l-.999-1.73zm-.415.24a.156.156 0 00-.27 0l-1 1.73a.798.798 0 000 .797l.999 1.729a.157.157 0 00.272 0l.998-1.729a.798.798 0 000-.797zM19.92 8.433a.636.636 0 00-.55.953l.999 1.73c.228.396.65.64 1.106.64h1.996a.637.637 0 00.551-.956l-.998-1.728a1.277 1.277 0 00-1.106-.639H19.92zm0 .48a.156.156 0 00-.135.234l1 1.73a.798.798 0 00.69.399h1.996a.157.157 0 00.136-.236l-.998-1.729a.798.798 0 00-.69-.398zM16.349 9.385a.636.636 0 00-.55-.953H13.8c-.457 0-.878.243-1.107.638l-.998 1.729a.637.637 0 00.552.955h1.996c.456 0 .878-.244 1.106-.639l.999-1.73zm-.415-.24a.156.156 0 00-.136-.234h-1.997a.798.798 0 00-.691.4l-.998 1.728a.157.157 0 00.136.235h1.996a.798.798 0 00.69-.398z" fill="#96d04a"/></g><path d="M20.782 10.527h-.002c-.027.016-.045.481-.055 1.121h-.462v2.772h.462c.01.64.028 1.105.055 1.12.087.05 4.341-2.406 4.341-2.506 0-.1-4.188-2.518-4.339-2.507z" fill="#f66e4f" fill-rule="nonzero" paint-order="fill markers stroke"/></g></svg>